# xmcd
#
# Track frame offsets: 
#        150
#        12499
#        24197
#        37142
#        48464
#        60800
#        72556
#        83773
#        95728
#        108609
#        120326
#        134287
#        148155
#        160668
#        172593
#        184873
#        196184
#        206650
#        217275
#
# Disc length: 3073 seconds
#
# Revision: 0
# Processed by: cddbd v1.5.2PL0 Copyright (c) Steve Scherf et al.
# Submitted via: ExactAudioCopy v0.99pb4
#
DISCID=0e0bff13
DTITLE=Sam Cooke and the Soul Stirrers - Peace in the Valley
DYEAR=1900
DGENRE=gospel
TTITLE0=peace in the valley
TTITLE1=it won't be very long
TTITLE2=how far am i from canaan?
TTITLE3=jesus gave me water
TTITLE4=just another day
TTITLE5=come and go to that land
TTITLE6=any day now
TTITLE7=he'll make way
TTITLE8=all right now
TTITLE9=jesus, i'll never forget
TTITLE10=he'll welcome me
TTITLE11=he's my friend until the end
TTITLE12=jesus paid my debt
TTITLE13=let me go home
TTITLE14=jesus will lead me to that promised land
TTITLE15=i gave up everything to follow him
TTITLE16=i have a friend above all others
TTITLE17=i'm so happy in the service of the lord
TTITLE18=end of my hourney
EXTD=
EXTT0=
EXTT1=
EXTT2=
EXTT3=
EXTT4=
EXTT5=
EXTT6=
EXTT7=
EXTT8=
EXTT9=
EXTT10=
EXTT11=
EXTT12=
EXTT13=
EXTT14=
EXTT15=
EXTT16=
EXTT17=
EXTT18=
PLAYORDER=
